<?xml version="1.0"?>
<svg xmlns="http://www.w3.org/2000/svg" xmlns:xlink="http://www.w3.org/1999/xlink" version="1.1" id="Capa_1" x="0px" y="0px" viewBox="0 0 512 512" style="enable-background:new 0 0 512 512;" xml:space="preserve" width="512px" height="512px"><g><g>
	<g>
		<path d="M297.966,341.164L154.143,166.78h-13.658l52.655-57.364V77.56H58.297V50.186h15.208v12.673h15.208V34.978H43.089V77.56H0    v31.638l47.7,57.582H33.457v310.242H512V341.164H297.966z M15.208,103.716V92.768h162.725v10.727l-58.09,63.285H67.448    L15.208,103.716z M496.792,461.814H48.665V181.988h11.633h66.228h20.447l143.821,174.384h205.997V461.814z" data-original="#000000" class="active-path" data-old_color="#000000" fill="#FFFFFF"/>
	</g>
</g><g>
	<g>
		<rect x="382.733" y="268.166" width="50.693" height="15.208" data-original="#000000" class="active-path" data-old_color="#000000" fill="#FFFFFF"/>
	</g>
</g><g>
	<g>
		<path d="M484.119,268.166h-17.236v15.208h17.236c6.989,0,12.673,5.685,12.673,12.673v12.673H316.373L193.332,158.765l7.759-7.482    c2.549-2.459,5.892-3.719,9.439-3.534c3.537,0.179,6.745,1.767,9.032,4.471L330.54,283.374h18.735v-15.208h-11.681    L231.173,142.395c-4.96-5.862-12.203-9.446-19.872-9.836c-7.669-0.393-15.237,2.444-20.765,7.774l-17.863,17.226l136.506,166.37    H512v-27.881C512,280.673,499.492,268.166,484.119,268.166z" data-original="#000000" class="active-path" data-old_color="#000000" fill="#FFFFFF"/>
	</g>
</g><g>
	<g>
		<path d="M458.772,207.335h-0.507H357.893h-1.521c-15.373,0-27.881,12.507-27.881,27.881h15.208    c0-6.989,5.685-12.673,12.673-12.673h1.521v73.505h15.208v-73.505h69.956v73.505h15.208v-73.505h0.507    c6.989,0,12.673,5.685,12.673,12.673h15.208C486.654,219.842,474.145,207.335,458.772,207.335z" data-original="#000000" class="active-path" data-old_color="#000000" fill="#FFFFFF"/>
	</g>
</g><g>
	<g>
		<rect x="16.222" y="53.735" width="15.208" height="15.208" data-original="#000000" class="active-path" data-old_color="#000000" fill="#FFFFFF"/>
	</g>
</g></g> </svg>
